<svg width="12" height="13" viewBox="0 0 12 13" fill="none" xmlns="http://www.w3.org/2000/svg">
<g id="External URL" clip-path="url(#clip0_12477_13658)">
<path id="Vector" d="M6.75 3.07141V1.32141C6.75 1.1888 6.69732 1.06163 6.60355 0.967858C6.50979 0.87409 6.38261 0.821411 6.25 0.821411H0.75C0.617392 0.821411 0.490215 0.87409 0.396447 0.967858C0.302678 1.06163 0.25 1.1888 0.25 1.32141V11.8214C0.25 11.954 0.302678 12.0812 0.396447 12.175C0.490215 12.2687 0.617392 12.3214 0.75 12.3214H6.25C6.38261 12.3214 6.50979 12.2687 6.60355 12.175C6.69732 12.0812 6.75 11.954 6.75 11.8214V10.0714" stroke="white" stroke-linecap="round" stroke-linejoin="round"/>
<path id="Vector_2" d="M11.75 6.57141H2.25" stroke="white" stroke-linecap="round" stroke-linejoin="round"/>
<path id="Vector_3" d="M9.25 9.07141L11.75 6.57141L9.25 4.07141" stroke="white" stroke-linecap="round" stroke-linejoin="round"/>
</g>
<defs>
<clipPath id="clip0_12477_13658">
<rect width="12" height="12" fill="white" transform="translate(0 0.571411)"/>
</clipPath>
</defs>
</svg>
